<svg width="38" height="38" viewBox="0 0 38 38" fill="none" xmlns="http://www.w3.org/2000/svg">
<path d="M38 37.0284C38 37.0284 38 19.4771 38 13.6318C38 13.3908 37.6892 13.0877 37.3865 12.8623L31.1155 8.42393V3.5192C31.1155 3.03728 30.7012 2.71082 30.2869 2.71082H23.1394L19.498 0.122424C19.251 -0.040808 18.8367 -0.040808 18.5817 0.122424L14.9402 2.71082H7.79283C7.2988 2.71082 6.96414 3.11501 6.96414 3.5192V8.36952L0.613546 12.8701C0.239044 13.0955 0 13.3908 0 13.6396C0 19.5237 0 37.1916 0 37.1916C0 37.6502 0.374502 37.9689 0.76494 38C0.788845 38 0.804781 38 0.828685 38H37.1633C37.6972 37.9922 38 37.588 38 37.0284ZM36.4223 15.0853V35.5748L22.7092 24.8637L36.4223 15.0853ZM35.8088 13.6629L31.1155 16.9975V10.2972L35.8088 13.6629ZM19.004 1.65369L20.4622 2.70304H17.5378L19.004 1.65369ZM29.4582 4.32759V18.179L19.004 25.6099L8.5498 18.179V4.32759H29.4582ZM1.58566 15.0853L15.2988 24.8637L1.58566 35.637V15.0853ZM6.97211 17.0597L2.15936 13.6396L6.97211 10.2273V17.0597ZM3.0757 36.4532L16.6295 25.812L18.502 27.149C18.8606 27.4132 19.1315 27.4132 19.498 27.149L21.3705 25.812L35.004 36.4532H3.0757Z" fill="white"/>
<path d="M24.6454 8.29181H13.4502V9.83085H24.6454V8.29181Z" fill="white"/>
<path d="M24.6454 13.2276H13.4502V14.7666H24.6454V13.2276Z" fill="white"/>
<path d="M24.6454 18.1634H13.4502V19.7025H24.6454V18.1634Z" fill="white"/>
</svg>
