<svg width="38" height="38" viewBox="0 0 38 38" fill="none" xmlns="http://www.w3.org/2000/svg">
<g clip-path="url(#clip0_267_244)">
<path d="M19 0C11.609 0 5.59619 6.01283 5.59619 13.4038C5.59619 22.4008 17.8852 37.1032 18.4084 37.7247C18.5545 37.8984 18.7697 37.999 18.9967 38C18.9978 38 18.9988 38 19 38C19.2257 38 19.4403 37.9013 19.5873 37.7298C20.1105 37.1188 32.4037 22.6593 32.4037 13.4038C32.4036 6.01283 26.3909 0 19 0ZM19.0046 36.0098C16.5366 32.9403 7.14278 20.771 7.14278 13.4038C7.14278 6.86572 12.4619 1.54659 19 1.54659C25.538 1.54659 30.8571 6.86572 30.8571 13.4038C30.857 20.981 21.4797 32.9763 19.0046 36.0098Z" fill="white"/>
<path d="M18.9998 7.45383C15.8576 7.45383 13.3013 10.0101 13.3013 13.1524C13.3013 16.2946 15.8576 18.8509 18.9998 18.8509C22.1421 18.8509 24.6984 16.2946 24.6984 13.1524C24.6984 10.0101 22.1421 7.45383 18.9998 7.45383ZM18.9998 17.3043C16.7105 17.3043 14.8479 15.4418 14.8479 13.1523C14.8479 10.8628 16.7104 9.00031 18.9998 9.00031C21.2893 9.00031 23.1518 10.8628 23.1518 13.1523C23.1518 15.4418 21.2891 17.3043 18.9998 17.3043Z" fill="white"/>
</g>
<defs>
<clipPath id="clip0_267_244">
<rect width="38" height="38" fill="white"/>
</clipPath>
</defs>
</svg>
