<svg width="169" height="128" viewBox="0 0 169 128" fill="none" xmlns="http://www.w3.org/2000/svg">
<line x1="20.5" y1="0.00390616" x2="19.5" y2="128.004" stroke="white"/>
<line x1="169" y1="107.5" x2="-3.85384e-08" y2="107.5" stroke="white"/>
<path d="M29.283 98.094C28.373 98.094 27.8573 97.4873 27.736 96.274C29.7987 87.5987 32.9837 75.4653 37.291 59.874C37.7157 58.4787 38.292 56.3857 39.02 53.595C37.0787 54.141 35.744 54.778 35.016 55.506C34.288 56.234 33.924 57.1743 33.924 58.327C33.924 59.1763 33.7723 59.8437 33.469 60.329C33.2263 60.7537 32.65 60.966 31.74 60.966C30.466 60.966 29.829 60.0863 29.829 58.327C29.829 56.0823 30.6177 54.323 32.195 53.049C33.7723 51.7143 36.4113 50.5617 40.112 49.591C41.75 42.7357 43.4183 31.391 45.117 15.557L45.845 9.09599C46.027 7.63999 46.9067 6.912 48.484 6.912C49.0907 6.912 49.5153 7.03333 49.758 7.276C50.0007 7.51866 50.0917 7.913 50.031 8.459C49.303 17.0737 47.483 30.39 44.571 48.408C53.5497 46.1027 65.1067 44.6163 79.242 43.949C80.6373 33.6963 82.3057 23.292 84.247 12.736L84.975 8.18599C85.0963 7.51866 85.3997 7.003 85.885 6.63899C86.431 6.21433 87.0073 6.002 87.614 6.002C88.0387 6.002 88.4027 6.15366 88.706 6.457C89.0093 6.69966 89.161 7.06366 89.161 7.549C89.161 7.79166 88.6757 10.8857 87.705 16.831C85.2783 31.8157 83.8527 40.8247 83.428 43.858H93.62C94.1053 43.858 94.4693 44.04 94.712 44.404C95.0153 44.7073 95.167 45.0713 95.167 45.496C95.167 45.9813 94.9547 46.497 94.53 47.043C94.1053 47.5283 93.5897 47.862 92.983 48.044L82.791 47.953C82.427 50.865 81.4867 56.2037 79.97 63.969C78.696 70.7637 77.7253 76.345 77.058 80.713C76.3907 85.0203 75.966 89.267 75.784 93.453C75.7233 94.181 75.3897 94.7877 74.783 95.273C74.237 95.7583 73.691 96.001 73.145 96.001C72.235 96.001 71.7193 95.364 71.598 94.09C71.8407 87.1133 73.509 75.89 76.603 60.42L77.422 56.143L78.696 48.135C64.6213 48.681 52.8823 50.228 43.479 52.776C41.9623 58.964 39.9603 66.426 37.473 75.162C34.925 84.262 33.0443 91.2993 31.831 96.274C31.1637 97.4873 30.3143 98.094 29.283 98.094Z" fill="white"/>
<path d="M142.389 40.6787C138.538 36.887 134.272 34.9912 129.592 34.9912C125.148 34.9912 120.883 36.6797 116.795 40.0566C111.641 44.3223 108.086 49.832 106.131 56.5859C105.42 59.015 105.064 61.0293 105.064 62.6289C105.064 64.2285 105.124 65.4727 105.242 66.3613C105.242 72.2266 107.227 76.7292 111.196 79.8691C114.929 82.7721 119.698 84.2236 125.504 84.2236C133.443 83.5719 141.056 80.5208 148.343 75.0703C150.357 73.5299 152.49 72.0488 154.741 70.627C155.571 70.627 156.4 70.7454 157.229 70.9824C158.118 71.2194 158.562 71.9007 158.562 73.0264C152.697 78.1214 147.75 81.7946 143.722 84.0459C136.257 88.0745 129.503 90.0889 123.46 90.0889C123.045 90.0889 122.66 90.0889 122.305 90.0889C115.729 90.0889 110.1 88.0449 105.42 83.957C100.443 79.6322 97.9551 74.2409 97.9551 67.7832C97.9551 62.9251 98.8141 58.2744 100.532 53.8311C102.31 49.3877 104.709 45.4775 107.73 42.1006C110.811 38.6644 114.425 35.9391 118.572 33.9248C122.779 31.9105 127.281 30.9033 132.08 30.9033C136.168 30.9033 138.834 31.4661 140.078 32.5918C141.618 33.9544 142.389 36.6501 142.389 40.6787ZM125.415 18.7285C126.244 17.6029 127.133 17.04 128.081 17.04C128.674 17.04 129.118 17.3363 129.414 17.9287C129.71 18.4619 129.829 18.9951 129.77 19.5283C129.71 20.0615 129.562 20.5651 129.325 21.0391C129.088 21.513 128.703 22.0758 128.17 22.7275C127.163 23.8532 125.119 25.6898 122.038 28.2373L119.283 25.749L125.415 18.7285Z" fill="white"/>
</svg>
