<svg width="38" height="38" viewBox="0 0 38 38" fill="none" xmlns="http://www.w3.org/2000/svg">
<path d="M26.8613 8.52765C26.8618 8.52765 26.8624 8.52817 26.863 8.52817H26.8664L26.8613 8.52765Z" fill="white"/>
<path d="M36.5556 4.4126L36.5562 4.41082C36.5447 4.40741 35.0031 3.89522 33.6917 3.57185C31.8634 3.12357 29.1617 2.79961 26.4145 2.57576C23.6707 2.35362 20.9033 2.23911 19.0004 2.23911C17.0974 2.23911 14.3301 2.35362 11.5857 2.57576C8.83849 2.79961 6.1373 3.12357 4.30914 3.57244C2.99755 3.89522 1.45469 4.40741 1.44326 4.41082L1.44385 4.4126C0.596719 4.67266 0.00059375 5.44721 0 6.34036C0 6.39847 0.00289453 6.45889 0.00808984 6.52041V6.51871L0.610598 13.2158V13.2181C0.658988 13.7458 0.913855 14.2137 1.28213 14.5394C1.64981 14.8662 2.13839 15.0619 2.66319 15.0619H8.66459C9.1819 15.0619 9.66477 14.872 10.0313 14.5527C10.3984 14.2344 10.6568 13.7757 10.7138 13.2555L11.0176 10.5204V10.5187C11.0239 10.4646 11.047 10.4163 11.0936 10.3719C11.1402 10.3282 11.2041 10.296 11.283 10.2897L11.2881 10.2891C11.2887 10.2891 11.5867 10.2633 12.0839 10.2235C13.5732 10.105 16.8492 9.86842 19.0003 9.86902C20.4321 9.86902 22.3702 9.97322 23.9394 10.0785C24.7243 10.1314 25.4189 10.1844 25.9166 10.2235C26.4139 10.2632 26.7118 10.2891 26.7124 10.2891L26.7176 10.2897C26.7965 10.296 26.8604 10.3282 26.907 10.3719C26.9536 10.4162 26.9766 10.4646 26.983 10.5187V10.5204L27.2874 13.2567V13.2549C27.3438 13.7751 27.6016 14.2343 27.9687 14.5526C28.3358 14.8725 28.8186 15.0618 29.336 15.0618H35.3356C35.8604 15.0618 36.3496 14.8662 36.7179 14.5393C37.0861 14.2136 37.3417 13.7458 37.3895 13.2181L37.39 13.2158L37.9925 6.51863V6.51693C37.9977 6.45703 38 6.39832 38 6.34029C38 5.44721 37.4033 4.67326 36.5556 4.4126ZM36.2317 6.36166L36.173 6.35995L36.2317 6.36225L35.6292 13.0577V13.0559C35.6234 13.1169 35.5969 13.1693 35.5446 13.217C35.4922 13.263 35.4214 13.2941 35.3357 13.2941H29.3361C29.2521 13.2941 29.1818 13.2642 29.1294 13.2193C29.0782 13.1733 29.0518 13.1226 29.0448 13.0628V13.061L28.7404 10.3248V10.3265C28.6875 9.83851 28.4561 9.40292 28.1218 9.08757C27.7886 8.77162 27.3466 8.56789 26.8633 8.52818C26.8126 8.52417 22.0024 8.10239 19.0003 8.1012C15.9976 8.10239 11.188 8.52417 11.1373 8.52818C10.654 8.56789 10.212 8.77162 9.87874 9.08757C9.54446 9.40292 9.31312 9.83851 9.26013 10.3265V10.3248L8.95627 13.061C8.94937 13.122 8.92295 13.1727 8.87114 13.2193C8.81875 13.2642 8.74854 13.2941 8.66452 13.2941H2.66319C2.57918 13.2941 2.50896 13.2636 2.45605 13.2175C2.40365 13.1698 2.37723 13.1169 2.37084 13.0559L2.37144 13.0577L1.76893 6.36003V6.35825L1.76782 6.34043C1.76782 6.24603 1.83224 6.14012 1.97036 6.09811L1.98357 6.0941L1.99916 6.08891C1.99916 6.08891 2.09059 6.05833 2.2512 6.00712C2.73229 5.8523 3.82509 5.51111 4.73145 5.28838C6.36686 4.88389 9.03584 4.55406 11.7283 4.33771C14.4237 4.11907 17.1646 4.00685 19.0003 4.00685C20.8354 4.00685 23.5763 4.11907 26.2717 4.33771C28.9642 4.55406 31.6338 4.88382 33.2692 5.28838C33.8723 5.43682 34.5606 5.63825 35.0928 5.80168C35.3593 5.88339 35.5872 5.95531 35.7483 6.00712C35.9088 6.05833 35.9997 6.08891 36.0003 6.08891L36.0159 6.0941L36.0303 6.09811C36.1684 6.14071 36.2329 6.24603 36.2323 6.34043L36.2317 6.36166Z" fill="white"/>
<path d="M11.1338 8.52817H11.1373C11.1379 8.52817 11.1384 8.52765 11.139 8.52765L11.1338 8.52817Z" fill="white"/>
<path d="M27.4831 16.6905C26.9894 15.4382 26.7074 14.3547 26.5504 13.591C26.4721 13.2095 26.4249 12.9085 26.3973 12.706C26.3834 12.6053 26.3749 12.5288 26.3697 12.4799L26.3645 12.4275L26.3634 12.4166L26.3006 11.6011H25.4823H21.0628V14.5475H16.9379V11.6011H11.7001L11.6368 12.4171H11.6374C11.6328 12.4752 11.4689 14.3264 10.471 16.8083C9.47091 19.296 7.64491 22.4092 4.30966 25.0505L3.97412 25.3158V25.7434C3.97412 27.8058 3.97412 34.0419 3.97412 34.0419C3.97531 34.992 4.74295 35.7596 5.69303 35.7608H32.3077C33.2578 35.7596 34.0255 34.9921 34.0266 34.0419C34.0266 34.0419 34.0266 27.8058 34.0266 25.7434V25.3158L33.6912 25.0505C30.3029 22.3673 28.4724 19.1971 27.4831 16.6905ZM13.2902 13.3689H15.1702V16.3152H22.8306V13.3689H24.7106C24.8516 14.2078 25.1646 15.6304 25.8384 17.3395C26.8783 19.9773 28.7923 23.3046 32.2588 26.16C32.2588 28.41 32.2588 33.4648 32.2588 33.9931H5.74201C5.74201 33.4648 5.74201 28.41 5.74201 26.16C9.20855 23.3046 11.1225 19.9773 12.1623 17.3395C12.8356 15.6305 13.1487 14.2079 13.2902 13.3689Z" fill="white"/>
<path d="M19.0001 31.6453C22.2503 31.6441 24.8916 29.0028 24.8928 25.7526C24.8917 22.5025 22.2503 19.8611 19.0001 19.86C15.75 19.8612 13.108 22.5025 13.1074 25.7526C13.108 29.0028 15.7499 31.6441 19.0001 31.6453ZM19.0001 20.8423C20.3547 20.8423 21.5793 21.3913 22.4713 22.2821C23.3609 23.1735 23.9105 24.3981 23.9105 25.7527C23.9105 27.1073 23.361 28.3319 22.4713 29.2238C21.5793 30.1135 20.3548 30.663 19.0001 30.663C17.6455 30.663 16.421 30.1135 15.529 29.2238C14.6393 28.3319 14.0897 27.1073 14.0897 25.7527C14.0897 24.3981 14.6392 23.1736 15.529 22.2821C16.4209 21.3913 17.6455 20.8423 19.0001 20.8423Z" fill="white"/>
<path d="M19.0005 28.699C20.6274 28.699 21.9469 27.38 21.9469 25.7526C21.9469 24.1259 20.6274 22.8063 19.0005 22.8063C17.3737 22.8063 16.0542 24.1258 16.0542 25.7526C16.0542 27.38 17.3737 28.699 19.0005 28.699Z" fill="white"/>
</svg>
